<svg xmlns="http://www.w3.org/2000/svg" viewBox="0 0 240 240" role="img" aria-labelledby="title desc">
  <title id="title">Centro de Estudiantes UNO</title>
  <desc id="desc">Logo del Centro de Estudiantes de la Universidad Nacional del Oeste</desc>
  <defs>
    <path id="topArc" d="M 34 120 A 86 86 0 0 1 206 120"/>
    <path id="bottomArc" d="M 206 120 A 86 86 0 0 1 34 120"/>
  </defs>
  <circle cx="120" cy="120" r="111" fill="#8ed7e8"/>
  <circle cx="120" cy="120" r="91" fill="#fff"/>
  <circle cx="25" cy="120" r="7" fill="#fff"/>
  <circle cx="215" cy="120" r="7" fill="#fff"/>
  <text fill="#fff" font-family="Arial,Helvetica,sans-serif" font-size="15.5" letter-spacing="1.8" text-anchor="middle">
    <textPath href="#topArc" startOffset="50%">CENTRO DE ESTUDIANTES</textPath>
  </text>
  <text fill="#fff" font-family="Arial,Helvetica,sans-serif" font-size="11.1" letter-spacing=".9" text-anchor="middle">
    <textPath href="#bottomArc" startOffset="50%">UNIVERSIDAD NACIONAL DEL OESTE</textPath>
  </text>
  <text x="45" y="146" fill="#93dbea" font-family="Arial Black,Arial,Helvetica,sans-serif" font-size="72" font-weight="900">UNO</text>
  <g transform="translate(171 119)" fill="#f7ad2f">
    <circle r="28"/>
    <path d="M0-49 7-27-7-27ZM0 49 7 27-7 27ZM49 0 27 7 27-7ZM-49 0-27 7-27-7ZM35-35 25-15 15-25ZM35 35 15 25 25 15ZM-35 35-25 15-15 25ZM-35-35-15-25-25-15ZM19-46 17-23 5-29ZM46-19 29-5 23-17ZM46 19 23 17 29 5ZM19 46 5 29 17 23ZM-19 46-17 23-5 29ZM-46 19-29 5-23 17ZM-46-19-23-17-29-5ZM-19-46-5-29-17-23Z"/>
  </g>
</svg>